<?xml version="1.0" standalone="no"?>
<!DOCTYPE svg PUBLIC "-//W3C//DTD SVG 20010904//EN"
 "http://www.w3.org/TR/2001/REC-SVG-20010904/DTD/svg10.dtd">
<svg version="1.0" xmlns="http://www.w3.org/2000/svg"
 width="800.000000pt" height="800.000000pt" viewBox="0 0 800.000000 800.000000"
 preserveAspectRatio="xMidYMid meet">
<metadata>
Created by potrace 1.14, written by Peter Selinger 2001-2017
</metadata>
<g transform="translate(0.000000,800.000000) scale(0.100000,-0.100000)"
fill="#000000" stroke="none">
<path d="M5993 7910 c-122 -55 -252 -248 -284 -422 l-12 -66 -34 102 c-60 177
-127 296 -185 327 -91 49 -214 -196 -273 -541 -14 -79 -14 -287 0 -363 20
-108 61 -233 110 -334 l42 -85 -24 -96 c-13 -54 -26 -110 -28 -127 -3 -16 -8
-37 -10 -45 -2 -8 -7 -37 -11 -65 -3 -27 -8 -53 -10 -57 -3 -4 -7 -63 -11
-131 -4 -98 -2 -141 12 -203 31 -142 128 -338 215 -436 41 -47 41 -48 36 -110
-2 -35 -5 -84 -5 -110 -1 -35 -5 -48 -15 -48 -25 0 -28 19 -11 65 20 51 15 72
-20 85 -36 14 -52 4 -71 -46 -9 -24 -18 -44 -19 -44 -1 0 -34 16 -74 35 -39
19 -73 35 -75 35 -2 0 -33 13 -69 30 l-66 30 19 56 c22 64 18 76 -31 93 -25 9
-31 7 -43 -12 -8 -12 -19 -39 -26 -59 -6 -21 -15 -38 -18 -38 -4 0 -50 15
-102 34 -104 37 -99 30 -85 119 7 45 7 47 -17 47 -14 0 -25 -6 -26 -12 0 -7
-6 -34 -12 -59 l-11 -46 -50 13 c-57 15 -71 22 -64 34 3 4 7 34 10 66 3 33 7
70 10 84 2 14 7 49 10 79 4 30 8 61 10 70 1 9 6 45 10 81 5 36 9 74 11 85 1
11 3 27 3 36 1 13 15 15 95 12 l94 -3 15 33 c14 30 19 55 33 164 6 42 5 43
-41 70 -26 15 -76 47 -111 71 -36 23 -67 42 -70 42 -3 0 -10 5 -17 10 -7 6
-61 46 -122 89 -60 43 -109 84 -108 92 1 8 9 48 18 89 21 93 14 183 -20 278
-30 83 -30 82 -6 82 44 0 65 86 30 121 -16 16 -34 19 -132 19 -78 0 -119 -4
-131 -13 -37 -27 -21 -127 20 -127 11 0 14 -5 9 -17 -22 -56 -39 -114 -49
-162 l-11 -53 -46 45 c-107 107 -228 258 -292 364 -18 29 -35 53 -38 53 -4 0
-34 -42 -67 -92 -214 -327 -556 -633 -1005 -899 l-58 -34 6 -42 c3 -23 9 -64
14 -90 5 -26 8 -50 6 -52 -2 -2 2 -10 10 -17 7 -8 15 -19 17 -25 3 -8 34 -11
95 -10 l91 2 6 -28 c3 -15 8 -53 11 -83 4 -30 8 -67 11 -81 14 -90 28 -219 29
-263 l0 -40 -70 -18 c-38 -9 -73 -18 -76 -18 -3 0 -12 19 -19 43 -17 53 -40
100 -53 108 -14 10 -64 -10 -71 -28 -4 -8 5 -46 19 -84 18 -52 22 -71 12 -74
-6 -2 -56 -20 -111 -40 -54 -19 -99 -35 -101 -35 -1 0 -13 27 -26 60 -13 33
-28 61 -34 64 -6 2 -25 -2 -43 -10 -38 -16 -41 -39 -12 -103 11 -24 18 -46 16
-48 -3 -4 -206 -100 -251 -119 -6 -2 -21 16 -33 41 -22 47 -33 52 -76 36 -33
-13 -36 -38 -9 -86 l22 -41 -57 -30 -57 -31 -16 31 c-19 38 -55 45 -87 16 -22
-21 -22 -21 -3 -58 l19 -37 -24 -18 c-44 -33 -25 -68 24 -43 l29 15 44 -77
c24 -42 58 -99 74 -127 17 -28 65 -113 108 -187 l78 -136 -59 -83 c-86 -122
-160 -253 -258 -455 -47 -99 -102 -213 -122 -254 -29 -61 -56 -95 -141 -180
-59 -58 -140 -133 -181 -165 -41 -33 -77 -62 -80 -65 -17 -17 -79 -55 -123
-76 -66 -30 -47 -30 73 0 115 30 183 52 232 77 49 25 54 24 34 -6 -12 -19 -14
-30 -5 -52 6 -15 10 -30 9 -33 -6 -23 41 -181 72 -243 19 -38 19 -39 -1 -44
-12 -3 -18 -10 -14 -16 4 -7 0 -8 -12 -3 -18 7 -18 6 0 -14 10 -11 15 -23 12
-27 -4 -3 -7 -2 -7 4 0 5 -6 10 -13 10 -9 0 -12 -10 -9 -30 3 -18 1 -27 -5
-24 -5 3 -10 -1 -10 -9 0 -9 6 -13 15 -9 12 4 13 3 2 -10 -7 -8 -17 -12 -22
-9 -7 4 -7 0 0 -12 12 -24 -4 -88 -20 -78 -7 4 -8 3 -4 -5 6 -9 12 -9 24 1 15
11 15 10 -1 -14 -13 -21 -15 -33 -7 -53 7 -17 7 -24 0 -20 -6 3 -10 -3 -10
-15 0 -14 -4 -19 -12 -14 -8 5 -8 1 1 -10 13 -15 13 -19 0 -27 -10 -6 -10 -9
-1 -9 6 0 12 -7 12 -15 0 -8 -5 -15 -11 -15 -5 0 -7 5 -3 12 4 6 3 8 -3 5 -10
-6 -9 -59 2 -77 3 -6 3 -10 -2 -9 -20 3 -27 -2 -13 -11 12 -7 11 -12 -5 -30
-14 -15 -15 -20 -5 -18 8 2 14 -5 14 -17 0 -13 -6 -20 -16 -19 -15 1 -16 0 -1
-22 14 -22 14 -24 -3 -25 -12 0 -14 -3 -6 -6 10 -4 10 -8 0 -21 -7 -9 -8 -13
-2 -9 8 4 11 -3 10 -22 0 -16 -4 -27 -8 -25 -5 3 -8 -13 -8 -36 0 -23 -4 -39
-8 -36 -4 2 -9 -5 -9 -17 -2 -16 0 -18 7 -8 5 9 7 0 6 -25 -2 -28 -8 -40 -20
-42 -16 -4 -16 -5 1 -19 10 -8 13 -12 6 -9 -7 4 -9 -1 -5 -16 3 -12 1 -19 -4
-15 -9 5 -13 -14 -14 -68 -1 -11 -6 -23 -13 -28 -8 -6 -6 -7 5 -3 10 3 20 0
24 -6 4 -6 3 -8 -3 -5 -6 4 -17 -1 -24 -10 -12 -15 -12 -16 3 -10 10 3 20 1
24 -5 4 -7 3 -8 -4 -4 -7 4 -12 2 -12 -4 0 -6 -4 -9 -8 -6 -5 3 -9 -1 -9 -9 0
-8 4 -15 9 -15 5 0 6 -5 3 -10 -4 -6 -12 -7 -18 -3 -7 4 -6 0 2 -10 9 -12 10
-17 2 -17 -7 0 -9 -5 -6 -10 4 -6 1 -19 -7 -28 -11 -15 -11 -15 2 -5 13 10 16
9 16 -7 0 -10 -4 -17 -7 -14 -4 2 -10 0 -14 -5 -3 -5 3 -15 12 -21 17 -11 17
-11 1 -6 -12 4 -18 0 -19 -12 -1 -9 -2 -24 -3 -32 -1 -8 2 -20 7 -27 4 -6 3
-14 -4 -19 -8 -5 -9 -3 -4 6 5 8 4 11 -3 6 -6 -4 -9 -13 -6 -21 4 -8 10 -13
14 -10 5 3 12 0 16 -7 4 -7 4 -10 -1 -6 -4 4 -14 3 -22 -3 -15 -13 -18 -53 -3
-44 5 3 10 4 10 0 0 -3 -10 -10 -22 -15 -15 -5 -17 -9 -7 -9 9 -1 16 -8 16
-16 0 -10 -4 -12 -12 -5 -17 14 -12 -24 6 -46 13 -16 12 -16 -11 -4 -21 10
-23 10 -12 -1 14 -15 16 -33 2 -24 -6 3 -7 -1 -4 -10 5 -13 9 -13 23 -3 15 12
15 11 1 -6 -8 -11 -14 -22 -13 -25 1 -3 -1 -8 -4 -11 -4 -3 -3 1 2 9 5 9 4 12
-3 7 -19 -12 -14 -26 11 -27 16 -1 17 -3 5 -6 -15 -4 -14 -7 7 -29 14 -14 23
-29 20 -34 -3 -5 11 -7 30 -5 19 2 33 0 30 -5 -2 -4 18 -6 45 -4 37 2 49 0 44
-9 -5 -8 -3 -8 7 1 17 16 32 16 24 -1 -4 -6 0 -4 8 5 15 19 32 25 22 8 -4 -6
1 -7 12 -3 16 6 17 5 3 -12 -14 -17 -14 -17 7 -5 12 8 20 16 18 20 -2 3 14 5
35 5 29 0 37 -3 33 -15 -4 -13 -3 -13 9 1 7 9 19 14 27 11 8 -3 11 0 7 6 -7
11 12 11 31 -1 9 -6 11 -3 6 9 -4 12 -3 15 5 10 7 -4 12 -3 12 3 0 5 -6 12
-12 14 -7 3 -2 6 12 6 18 1 21 4 11 10 -11 7 -11 9 0 14 12 5 12 7 1 15 -11 7
-11 10 3 15 11 5 14 3 9 -6 -5 -9 -3 -8 7 1 12 11 12 14 -1 22 -13 9 -13 11 0
20 13 8 13 10 0 10 -9 0 -11 3 -4 10 14 14 87 14 124 0 3 -1 9 -2 14 -1 5 1 5
-4 -1 -11 -6 -7 -9 -21 -8 -31 2 -11 -1 -15 -8 -10 -7 3 -5 -2 4 -13 24 -29
34 -48 21 -40 -7 4 -12 2 -12 -3 0 -6 7 -11 15 -11 8 0 15 -7 15 -15 0 -9 6
-12 17 -8 12 5 14 3 8 -7 -6 -10 1 -12 29 -8 27 3 36 0 37 -12 0 -9 4 -6 9 8
5 12 15 22 22 22 10 0 10 -2 0 -9 -10 -6 -7 -10 12 -13 19 -4 24 -2 17 6 -7 8
-4 12 10 12 10 0 19 -4 19 -9 0 -4 5 -5 10 -2 6 4 8 10 5 15 -3 4 10 5 28 1
37 -9 60 -4 51 11 -4 6 -1 8 7 6 8 -3 13 -11 11 -18 -3 -11 0 -11 12 -1 8 7
21 9 28 5 8 -5 8 -1 -2 11 -14 17 -14 18 7 7 17 -10 25 -9 37 4 9 8 16 11 16
6 0 -5 14 -8 30 -7 17 1 33 -2 37 -8 3 -5 10 -3 15 4 7 10 8 8 3 -8 -5 -18 -2
-20 15 -16 11 3 20 10 20 17 0 7 4 6 9 -2 10 -16 141 -24 141 -10 0 5 -4 7 -9
3 -5 -3 -12 -1 -15 4 -4 5 1 8 10 7 8 -1 20 -9 24 -17 8 -12 11 -12 22 0 11
12 10 13 -2 6 -8 -5 -11 -4 -7 0 9 11 39 16 33 6 -3 -4 4 -13 16 -20 15 -9 18
-9 13 0 -5 7 -3 10 6 7 8 -3 25 4 39 16 13 11 19 14 12 5 -10 -13 -10 -18 0
-21 16 -6 40 1 34 11 -3 4 0 13 6 21 8 12 9 12 4 -2 -7 -22 29 -45 40 -26 4 7
3 8 -4 4 -7 -4 -12 -3 -12 3 0 5 9 9 19 8 11 0 18 -4 15 -8 -6 -11 27 -4 34 7
4 5 17 9 30 8 17 -1 20 2 12 11 -8 9 -7 12 2 11 7 0 14 3 15 8 0 5 8 13 17 18
9 5 14 13 11 18 -3 5 0 20 6 32 12 22 11 22 -6 8 -17 -14 -17 -14 -7 6 6 12 8
25 4 29 -4 5 -1 5 6 1 6 -4 12 -2 12 4 0 7 18 10 48 9 31 -2 49 -7 49 -15 0
-7 -6 -10 -14 -7 -28 11 -11 -8 20 -22 24 -11 26 -14 7 -9 l-25 5 25 -15 c14
-8 28 -12 31 -10 4 2 13 -4 20 -14 13 -15 12 -16 -3 -4 -12 10 -18 10 -24 1
-4 -8 -3 -9 5 -5 6 4 14 1 17 -8 3 -9 12 -12 22 -9 11 5 14 2 10 -9 -5 -11 0
-14 18 -12 13 1 22 -2 19 -6 -3 -5 1 -12 8 -17 21 -12 188 -375 312 -679 l37
-91 34 37 c42 46 76 55 103 26 10 -12 49 -82 86 -156 120 -245 152 -258 204
-86 21 69 46 170 56 228 3 17 8 34 10 38 2 4 7 22 10 41 9 51 56 202 67 217
24 29 57 5 112 -81 21 -32 50 -85 65 -117 l28 -59 -1 322 c0 250 2 327 12 342
11 15 12 16 8 2 -5 -16 -4 -16 19 -1 20 13 25 14 25 3 0 -11 2 -11 10 1 8 12
11 13 19 1 7 -11 9 -11 14 0 4 12 7 11 16 -1 9 -13 11 -13 11 0 0 8 23 -20 50
-62 28 -42 63 -87 78 -98 l27 -22 26 32 c15 17 32 52 39 76 7 25 17 47 22 50
4 3 5 10 2 16 -4 7 -2 8 4 4 6 -4 27 -8 46 -9 27 -3 33 0 28 12 -5 14 -4 14
13 1 11 -9 16 -10 11 -2 -4 6 -2 12 3 12 6 0 11 -4 11 -9 0 -11 19 -9 39 3 9
6 12 5 7 -2 -3 -6 -2 -13 3 -16 5 -3 12 2 16 12 6 16 8 15 23 -3 22 -26 43
-26 53 0 6 16 8 17 8 3 1 -9 5 -20 11 -23 5 -3 7 0 4 8 -3 8 0 18 7 23 7 4 10
3 6 -2 -3 -6 -2 -16 4 -24 7 -12 9 -12 9 -1 0 9 9 12 30 9 17 -3 33 -1 36 4 3
5 12 4 20 -3 11 -9 15 -8 20 6 5 13 9 14 15 4 11 -18 117 -19 124 0 3 7 12 10
20 7 9 -3 15 0 15 9 0 8 5 15 11 15 5 0 7 -5 3 -12 -4 -6 -3 -8 4 -4 6 3 9 22
7 41 -3 31 -1 33 12 19 14 -13 18 -13 40 2 14 9 22 11 19 5 -4 -6 -2 -11 5
-11 9 0 9 -4 -1 -15 -10 -12 -7 -13 17 -6 22 7 30 5 30 -5 0 -7 -4 -11 -9 -8
-4 3 -5 -2 -2 -11 5 -13 9 -13 22 -3 13 11 15 10 9 -4 -5 -15 -2 -16 18 -8 25
10 37 -4 13 -13 -8 -4 -6 -6 5 -7 9 -2 22 -3 27 -4 6 0 15 -8 21 -16 9 -13 10
-12 5 2 -3 10 -1 20 5 23 5 4 8 1 7 -6 -2 -7 2 -13 7 -14 6 0 16 -4 23 -8 8
-5 12 -2 13 10 0 14 2 14 9 -4 5 -13 12 -23 14 -23 3 0 3 6 0 14 -4 11 0 13
18 9 13 -4 26 -11 30 -17 5 -6 8 -1 8 12 0 13 4 20 10 17 6 -4 8 -10 6 -14 -3
-3 4 -7 14 -7 10 0 16 5 13 10 -4 5 1 7 10 3 9 -3 19 -2 22 3 4 6 11 10 16 10
6 0 7 -6 3 -12 -5 -9 -2 -9 9 1 14 11 17 11 17 0 0 -11 2 -11 10 1 5 8 10 10
10 4 0 -19 40 -25 40 -6 0 14 2 15 9 2 6 -8 8 -17 6 -20 -2 -3 9 -6 25 -5 28
0 28 1 12 20 -16 19 -16 19 3 5 11 -8 26 -22 33 -30 10 -13 11 -13 6 3 -4 12
-1 17 11 17 10 0 13 -5 9 -12 -5 -7 -3 -8 7 -2 21 13 39 14 39 1 0 -7 5 -5 10
3 6 9 10 10 10 3 0 -6 9 -11 19 -10 11 0 17 6 13 12 -3 5 2 4 11 -4 11 -9 17
-10 17 -2 0 6 5 11 11 11 5 0 8 -4 5 -9 -4 -5 3 -7 14 -4 18 5 24 15 21 36 -1
4 8 3 19 -3 16 -9 18 -8 14 5 -4 8 -11 15 -17 15 -6 0 -7 3 -4 6 4 4 13 1 22
-6 20 -16 19 -6 -1 14 -8 9 -11 16 -5 16 7 0 9 11 7 25 -3 14 1 31 9 39 9 8
10 17 4 23 -6 6 24 9 86 7 126 -2 141 9 151 111 3 39 8 79 11 90 3 11 6 128 8
260 3 225 -1 298 -30 470 -18 112 -103 303 -154 349 -16 15 -17 21 -5 66 7 27
15 62 17 77 3 15 15 81 27 146 l22 118 59 45 59 45 -36 57 c-21 31 -44 68 -52
82 -81 130 -208 313 -311 445 -68 88 -128 165 -133 171 -8 11 53 153 187 439
26 55 54 118 62 140 26 64 31 68 64 44 29 -21 59 -20 59 2 0 6 -15 24 -34 41
l-34 30 20 46 21 46 -23 18 c-34 28 -66 23 -82 -12 -7 -16 -16 -30 -21 -30 -7
0 -67 39 -77 51 -3 3 -27 21 -55 40 -27 19 -53 36 -57 40 -4 3 -2 30 4 61 14
66 3 88 -42 88 -31 0 -48 -16 -54 -51 -2 -13 -9 -23 -15 -22 -11 3 -235 140
-281 172 -17 12 -25 29 -27 52 -2 19 -7 65 -12 104 -6 38 -9 71 -7 72 2 2 25
-6 52 -18 43 -19 60 -21 149 -16 354 21 638 218 800 554 69 142 115 324 115
449 0 153 -96 319 -305 532 l-102 102 13 68 c25 138 43 298 48 427 6 174 -28
292 -119 421 -53 74 -114 130 -169 155 -51 23 -61 23 -113 -1z m-2989 -2525
c2 -17 7 -57 11 -90 4 -33 9 -69 10 -80 17 -128 17 -123 -4 -134 -11 -6 -26
-11 -34 -11 -17 0 -133 298 -121 310 8 7 126 40 131 36 1 -1 4 -15 7 -31z
m1708 -12 c26 -5 29 -9 23 -32 -4 -14 -8 -33 -10 -41 -40 -184 -54 -242 -58
-246 -2 -3 -21 3 -42 13 -34 16 -36 20 -31 53 2 19 10 82 16 140 15 135 15
134 46 126 15 -4 40 -10 56 -13z m-1891 -183 c32 -85 58 -159 59 -165 0 -5
-30 -27 -68 -47 -37 -21 -81 -47 -98 -58 l-31 -20 -71 178 c-40 97 -72 182
-72 188 0 7 8 14 18 17 9 3 55 19 102 36 47 16 89 29 94 28 4 -2 35 -72 67
-157z m2086 118 c47 -17 82 -36 80 -42 -2 -6 -28 -82 -58 -168 -29 -87 -56
-158 -60 -158 -7 0 -136 74 -146 84 -3 3 10 75 28 161 39 180 29 172 156 123z
m285 -114 c57 -25 119 -55 140 -65 l36 -18 -49 -128 c-27 -71 -58 -150 -69
-178 -10 -27 -24 -63 -30 -78 l-10 -29 -28 21 c-15 12 -71 53 -124 91 l-97 70
62 180 c34 99 63 180 64 180 2 0 49 -21 105 -46z m-2671 -160 l78 -189 -47
-43 c-26 -24 -68 -61 -94 -83 l-46 -40 -30 58 c-17 32 -46 87 -65 123 -19 36
-58 108 -86 161 l-50 96 62 28 c34 16 89 41 122 57 33 15 64 27 69 25 6 -2 45
-88 87 -193z m-369 -79 c99 -182 173 -320 180 -338 5 -12 -3 -29 -29 -57 l-36
-40 -60 102 c-33 57 -68 119 -79 138 -11 19 -47 80 -79 136 -33 55 -59 105
-59 110 0 12 93 63 102 55 3 -3 31 -51 60 -106z m3341 93 c15 -12 15 -18 3
-59 -16 -53 -52 -127 -71 -146 -8 -7 -22 -23 -32 -35 -10 -13 -26 -29 -36 -37
-17 -13 -17 -11 1 35 11 27 37 95 58 151 22 57 44 103 50 103 5 0 18 -6 27
-12z m341 -198 c101 -62 107 -67 103 -95 -2 -16 -32 -138 -67 -270 -34 -132
-67 -259 -72 -283 -6 -24 -13 -42 -17 -40 -10 4 -271 274 -271 281 0 3 13 19
30 37 69 74 110 213 113 382 l2 96 36 -21 c20 -12 84 -51 143 -87z m301 -206
l93 -67 -28 -61 c-39 -88 -177 -388 -217 -476 l-35 -75 -43 49 c-39 44 -42 51
-33 80 5 17 11 38 13 46 1 8 11 44 20 80 9 36 19 72 21 80 2 8 26 102 54 208
27 106 50 195 50 197 0 12 18 1 105 -61z m-4681 -3062 c3 -5 -1 -9 -9 -9 -8 0
-12 4 -9 9 3 4 7 8 9 8 2 0 6 -4 9 -8z m4014 -298 c-12 -12 -17 -13 -23 -3 -5
8 -4 10 4 5 6 -4 14 0 17 9 4 9 9 13 12 10 3 -3 -1 -13 -10 -21z m-4007 -97
c-10 -9 -11 -8 -5 6 3 10 9 15 12 12 3 -3 0 -11 -7 -18z m3409 19 c0 -3 -4 -8
-10 -11 -5 -3 -10 -1 -10 4 0 6 5 11 10 11 6 0 10 -2 10 -4z"/>
<path d="M6309 1298 c-6 -22 -4 -35 6 -35 7 0 10 8 7 19 -4 16 -10 23 -13 16z"/>
</g>
</svg>
